<?xml version="1.0" encoding="iso-8859-1"?>
<!-- Uploaded to: SVG Repo, www.svgrepo.com, Generator: SVG Repo Mixer Tools -->
<svg height="800px" width="800px" version="1.1" id="Layer_1" xmlns="http://www.w3.org/2000/svg" xmlns:xlink="http://www.w3.org/1999/xlink" 
	 viewBox="0 0 511.998 511.998" xml:space="preserve">
<g>
	<path style="fill:#2D527C;" d="M15.504,259.952C6.943,259.952,0,253.011,0,244.448V19.204C0,10.641,6.943,3.7,15.504,3.7
		s15.504,6.941,15.504,15.504v225.243C31.009,253.011,24.066,259.952,15.504,259.952z"/>
	<path style="fill:#2D527C;" d="M357.938,508.298H15.504C6.943,508.298,0,501.357,0,492.794V322.005
		c0-8.563,6.943-15.504,15.504-15.504s15.504,6.941,15.504,15.504v155.284h326.929c8.562,0,15.504,6.941,15.504,15.504
		C373.442,501.357,366.501,508.298,357.938,508.298z"/>
	<path style="fill:#2D527C;" d="M489.092,508.298h-55.258c-8.562,0-15.504-6.941-15.504-15.504s6.943-15.504,15.504-15.504h55.258
		c8.562,0,15.504,6.941,15.504,15.504S497.655,508.298,489.092,508.298z"/>
</g>
<g>
	<circle style="fill:#CEE8FA;" cx="133.462" cy="343.763" r="49.504"/>
	<circle style="fill:#CEE8FA;" cx="446.992" cy="120.707" r="49.504"/>
</g>
<path style="fill:#2D527C;" d="M446.992,55.697c-35.845,0-65.008,29.164-65.008,65.008c0,24.112,13.207,45.186,32.755,56.408
	l-21.357,66.487l-31.444-4.915c-6.431-29.127-32.438-50.988-63.469-50.988c-35.845,0-65.008,29.164-65.008,65.008
	c0,18.272,7.588,34.795,19.767,46.617l-31.553,61.125l-23.269-13.754c0.043-0.971,0.074-1.944,0.074-2.926
	c0-35.846-29.164-65.008-65.01-65.008c-35.845,0-65.008,29.164-65.008,65.008c0,15.57,5.507,29.874,14.669,41.079l-22.695,42.003
	c-4.07,7.534-1.262,16.94,6.27,21.01c2.344,1.267,4.868,1.867,7.357,1.867c5.513,0,10.85-2.947,13.655-8.138l20.491-37.924
	c7.769,3.29,16.308,5.11,25.261,5.11c23.605,0,44.308-12.648,55.698-31.522l30.863,18.242c2.412,1.425,5.138,2.157,7.889,2.157
	c1.437,0,2.881-0.2,4.289-0.605c4.101-1.18,7.532-3.997,9.489-7.788l38.319-74.23c5.854,1.736,12.044,2.684,18.453,2.684
	c29.877,0,55.095-20.266,62.67-47.769l40.553,6.34c0.808,0.127,1.611,0.188,2.406,0.188c6.637,0,12.666-4.273,14.751-10.765
	l25.716-80.057c0.808,0.029,1.614,0.062,2.428,0.062c35.845,0,65.008-29.164,65.008-65.008S482.836,55.697,446.992,55.697z
	 M133.47,377.768c-18.748,0-34-15.252-34-34c0-18.748,15.252-34,34-34s34.001,15.252,34.001,34
	C167.471,362.517,152.217,377.768,133.47,377.768z M298.469,286.706c-18.748,0-34-15.252-34-34s15.252-34,34-34
	c18.748,0,34,15.252,34,34S317.217,286.706,298.469,286.706z M446.992,154.707c-18.748,0-34-15.252-34-34s15.252-34,34-34
	s34,15.252,34,34S465.74,154.707,446.992,154.707z"/>
</svg>