<?xml version="1.0" encoding="iso-8859-1"?>
<!-- Uploaded to: SVG Repo, www.svgrepo.com, Generator: SVG Repo Mixer Tools -->
<svg height="800px" width="800px" version="1.1" id="Layer_1" xmlns="http://www.w3.org/2000/svg" xmlns:xlink="http://www.w3.org/1999/xlink" 
	 viewBox="0 0 486.402 486.402" xml:space="preserve">
<g>
	<g>
		<circle style="fill:#4F4FD9;" cx="309.598" cy="178.877" r="125.22"/>
		<path d="M309.486,313.599c-34.313,0.002-66.822-12.828-91.986-36.398c-26.263-24.6-41.375-57.955-42.551-93.921
			c-2.428-74.245,55.999-136.623,130.245-139.051c35.959-1.167,70.237,11.725,96.5,36.325s41.375,57.955,42.551,93.921l0,0
			c1.176,35.965-11.724,70.236-36.324,96.5c-24.6,26.263-57.955,41.375-93.921,42.551
			C312.495,313.574,310.986,313.599,309.486,313.599z M309.693,63.155c-1.29,0-2.581,0.021-3.877,0.064
			c-63.774,2.086-113.962,55.666-111.876,119.441c1.01,30.893,13.99,59.544,36.549,80.675c22.56,21.131,51.998,32.208,82.891,31.201
			c30.893-1.01,59.544-13.99,80.675-36.549c21.131-22.56,32.211-51.997,31.201-82.891l0,0c-1.01-30.894-13.99-59.544-36.549-80.675
			C367.093,74.176,339.165,63.155,309.693,63.155z"/>
	</g>
	<g>
		<path d="M306.155,37.242c-5.103,0-9.321-4.051-9.489-9.19l-0.59-18.039c-0.172-5.244,3.941-9.634,9.185-9.806
			c5.227-0.154,9.634,3.941,9.805,9.185l0.59,18.039c0.172,5.244-3.941,9.634-9.185,9.806
			C306.366,37.24,306.26,37.242,306.155,37.242z"/>
	</g>
	<g>
		<path d="M254.68,47.535c-3.767,0-7.33-2.254-8.82-5.963l-6.724-16.751c-1.954-4.869,0.408-10.4,5.277-12.355
			c4.868-1.954,10.4,0.408,12.355,5.277l6.724,16.751c1.954,4.869-0.408,10.4-5.277,12.355
			C257.056,47.315,255.858,47.535,254.68,47.535z"/>
	</g>
	<g>
		<path d="M176.984,115.788c-1.511,0-3.044-0.361-4.47-1.124l-15.919-8.509c-4.627-2.474-6.373-8.23-3.9-12.857
			c2.473-4.627,8.229-6.374,12.857-3.899l15.919,8.509c4.627,2.474,6.373,8.23,3.899,12.857
			C183.66,113.966,180.377,115.788,176.984,115.788z"/>
	</g>
	<g>
		<path d="M160.174,165.519c-0.447,0-0.899-0.032-1.355-0.097l-17.869-2.552c-5.194-0.742-8.803-5.553-8.062-10.747
			s5.551-8.81,10.747-8.062l17.869,2.552c5.194,0.742,8.803,5.553,8.062,10.747C168.89,162.099,164.826,165.519,160.174,165.519z"/>
	</g>
	<g>
		<path d="M143.683,221.722c-4.398,0-8.346-3.072-9.287-7.548c-1.079-5.135,2.208-10.172,7.343-11.251l17.664-3.713
			c5.132-1.076,10.172,2.208,11.251,7.343c1.079,5.135-2.208,10.172-7.343,11.251l-17.664,3.713
			C144.988,221.655,144.33,221.722,143.683,221.722z"/>
	</g>
	<g>
		<path d="M255.523,348.73c-0.98,0-1.976-0.153-2.958-0.474c-4.986-1.632-7.705-6.998-6.073-11.984l5.616-17.154
			c1.632-4.986,6.997-7.706,11.984-6.073c4.986,1.632,7.705,6.998,6.073,11.984l-5.616,17.154
			C263.239,346.187,259.519,348.73,255.523,348.73z"/>
	</g>
	<g>
		<path d="M371.246,345.975c-3.766,0-7.331-2.254-8.82-5.963l-6.724-16.75c-1.955-4.869,0.408-10.401,5.277-12.356
			c4.87-1.956,10.401,0.408,12.356,5.277l6.724,16.75c1.955,4.869-0.408,10.401-5.277,12.356
			C373.622,345.754,372.424,345.975,371.246,345.975z"/>
	</g>
	<g>
		<path d="M421.429,315.384c-2.606,0-5.201-1.066-7.077-3.159l-12.048-13.441c-3.502-3.907-3.174-9.913,0.733-13.415
			c3.908-3.503,9.913-3.173,13.415,0.733l12.048,13.441c3.502,3.907,3.174,9.913-0.733,13.415
			C425.954,314.584,423.687,315.384,421.429,315.384z"/>
	</g>
	<g>
		<path d="M476.914,213.79c-0.447,0-0.899-0.032-1.355-0.097l-17.869-2.552c-5.194-0.742-8.803-5.553-8.062-10.747
			s5.555-8.81,10.747-8.062l17.869,2.552c5.194,0.742,8.803,5.553,8.062,10.747C485.63,210.369,481.565,213.79,476.914,213.79z"/>
	</g>
	<g>
		<path d="M457.83,158.75c-4.398,0-8.346-3.072-9.287-7.547c-1.079-5.135,2.208-10.172,7.342-11.252l17.664-3.714
			c5.133-1.078,10.172,2.208,11.252,7.342c1.079,5.135-2.208,10.172-7.342,11.252l-17.664,3.714
			C459.135,158.684,458.478,158.75,457.83,158.75z"/>
	</g>
	<g>
		<path d="M404.106,70.392c-2.052,0-4.119-0.662-5.859-2.027c-4.127-3.24-4.847-9.211-1.608-13.338l11.144-14.199
			c3.239-4.128,9.211-4.847,13.339-1.608c4.127,3.24,4.847,9.211,1.608,13.339l-11.144,14.199
			C409.712,69.145,406.923,70.392,404.106,70.392z"/>
	</g>
	<g>
		<path d="M312.677,282.712c-5.103,0-9.321-4.051-9.489-9.19c-0.172-5.244,3.941-9.634,9.185-9.805
			c35.202-1.151,66.42-24.337,77.681-57.694c1.678-4.971,7.068-7.642,12.039-5.963c4.971,1.678,7.641,7.068,5.963,12.039
			c-6.697,19.84-19.101,37.027-35.869,49.703c-17.158,12.971-37.626,20.199-59.192,20.904
			C312.887,282.71,312.782,282.712,312.677,282.712z"/>
	</g>
	<g>
		<path d="M403.927,185.292c-5.103,0-9.321-4.051-9.489-9.19c-0.335-10.242-2.465-20.19-6.33-29.568
			c-1.999-4.851,0.312-10.404,5.163-12.404c4.852-2,10.404,0.312,12.404,5.163c4.736,11.49,7.344,23.665,7.754,36.189
			c0.172,5.244-3.941,9.634-9.185,9.805C404.137,185.291,404.032,185.292,403.927,185.292z"/>
	</g>
	<g>
		<path d="M361.181,109.332c-1.783,0-3.587-0.501-5.19-1.55c-8.028-5.25-16.801-9.067-26.074-11.347
			c-5.095-1.253-8.21-6.399-6.958-11.493c1.253-5.096,6.398-8.211,11.493-6.958c11.363,2.794,22.108,7.469,31.937,13.896
			c4.391,2.871,5.623,8.759,2.752,13.15C367.318,107.817,364.281,109.332,361.181,109.332z"/>
	</g>
	<g>
		<path d="M215.258,191.462c-5.103,0-9.321-4.051-9.489-9.19c-0.648-19.823,4.33-39.282,14.395-56.273
			c9.792-16.529,23.926-30.009,40.873-38.983c10.264-5.435,21.297-9.078,32.792-10.83c5.186-0.791,10.032,2.773,10.823,7.96
			c0.79,5.187-2.773,10.032-7.96,10.822c-9.383,1.43-18.387,4.403-26.763,8.839c-28.93,15.319-46.239,45.147-45.17,77.843
			c0.172,5.244-3.941,9.634-9.185,9.805C215.468,191.46,215.363,191.462,215.258,191.462z"/>
	</g>
	<g>
		<circle style="fill:#9797D0;" cx="115.236" cy="371.009" r="68.534"/>
		<path d="M115.203,449.044c-41.86,0.001-76.581-33.343-77.959-75.485c-1.406-43.005,32.437-79.136,75.442-80.543
			c20.819-0.69,40.683,6.791,55.896,21.04c15.213,14.249,23.966,33.57,24.647,54.402l0,0c0.681,20.832-6.791,40.683-21.04,55.896
			c-14.249,15.213-33.57,23.965-54.402,24.647C116.923,449.03,116.061,449.044,115.203,449.044z M115.285,311.974
			c-0.658,0-1.317,0.011-1.978,0.032c-32.534,1.064-58.137,28.398-57.073,60.932c1.042,31.878,27.312,57.103,58.978,57.105
			c0.651,0,1.299-0.011,1.954-0.032c32.534-1.064,58.137-28.398,57.073-60.932l0,0c-0.515-15.76-7.137-30.376-18.646-41.156
			C144.567,317.596,130.32,311.974,115.285,311.974z"/>
	</g>
	<g>
		<path d="M113.689,282.502c-5.103,0-9.321-4.051-9.489-9.189l-0.387-11.836c-0.172-5.244,3.94-9.634,9.184-9.806
			c5.245-0.167,9.634,3.94,9.806,9.184l0.387,11.836c0.172,5.244-3.94,9.634-9.184,9.806
			C113.899,282.5,113.794,282.502,113.689,282.502z"/>
	</g>
	<g>
		<path d="M9.492,402.869c-4.398,0-8.346-3.072-9.287-7.548c-1.079-5.135,2.208-10.172,7.343-11.251l11.589-2.436
			c5.133-1.077,10.172,2.208,11.251,7.343c1.079,5.135-2.208,10.172-7.343,11.251l-11.589,2.436
			C10.798,402.802,10.14,402.869,9.492,402.869z"/>
	</g>
	<g>
		<path d="M82.875,486.2c-0.98,0-1.976-0.153-2.958-0.474c-4.986-1.633-7.705-6.998-6.073-11.984l3.685-11.255
			c1.633-4.986,6.998-7.704,11.984-6.073c4.986,1.632,7.705,6.998,6.073,11.984l-3.684,11.255
			C90.591,483.657,86.871,486.2,82.875,486.2z"/>
	</g>
	<g>
		<path d="M191.728,464.321c-2.606,0-5.201-1.066-7.078-3.159l-7.904-8.819c-3.502-3.907-3.174-9.913,0.733-13.415
			c3.907-3.503,9.913-3.173,13.415,0.733l7.904,8.819c3.502,3.907,3.174,9.913-0.733,13.415
			C196.252,463.521,193.986,464.321,191.728,464.321z"/>
	</g>
	<g>
		<path d="M180.359,303.58c-2.052,0-4.119-0.662-5.859-2.028c-4.127-3.239-4.847-9.211-1.607-13.339l7.312-9.316
			c3.239-4.127,9.21-4.848,13.339-1.607c4.127,3.239,4.847,9.211,1.607,13.339l-7.312,9.316
			C185.964,302.333,183.175,303.58,180.359,303.58z"/>
	</g>
	<g>
		<path d="M78.011,383.999c-5.103,0-9.321-4.051-9.489-9.19c-0.635-19.431,9.648-37.157,26.839-46.259
			c4.986-2.64,10.347-4.411,15.933-5.263c5.182-0.788,10.032,2.773,10.823,7.96c0.791,5.186-2.773,10.033-7.959,10.823
			c-3.475,0.53-6.808,1.63-9.906,3.271c-10.722,5.677-17.136,16.73-16.74,28.847c0.172,5.244-3.941,9.634-9.185,9.805
			C78.221,383.997,78.115,383.999,78.011,383.999z"/>
	</g>
</g>
</svg>