<?xml version="1.0" encoding="iso-8859-1"?>
<!-- Uploaded to: SVG Repo, www.svgrepo.com, Generator: SVG Repo Mixer Tools -->
<svg version="1.1" id="Layer_1" xmlns="http://www.w3.org/2000/svg" xmlns:xlink="http://www.w3.org/1999/xlink" 
	 viewBox="0 0 496 496" xml:space="preserve">
<path style="fill:#FFF8EF;" d="M360,184v-72c0-4.8-4-8-8-8H128c-4,0-8,3.2-8,8v72c0,66.4,53.6,120,120,120S360,250.4,360,184z
	 M104,184V48h96h80h96v136c0,64-43.2,118.4-105.6,132.8c-4,0.8-6.4,4-6.4,8V352h-48v-28c0-4-2.4-7.2-6.4-8
	C147.2,302.4,104,248,104,184z"/>
<path style="fill:#EE5656;" d="M136,120h208v64c0,57.6-46.4,104-104,104s-104-46.4-104-104V120z M192,216c0,26.4,21.6,48,48,48
	s48-21.6,48-48c0-24-37.6-72-41.6-76.8c-3.2-4-9.6-4-12.8,0C229.6,144,192,192,192,216z"/>
<path style="fill:#F69494;" d="M240,156.8c14.4,19.2,32,47.2,32,59.2c0,17.6-14.4,32-32,32s-32-14.4-32-32
	C208,204,225.6,176,240,156.8z"/>
<rect x="208" y="16" style="fill:#EE5656;" width="64" height="16"/>
<g>
	<path style="fill:#42210B;" d="M240,156.8C225.6,176,208,204,208,216c0,17.6,14.4,32,32,32s32-14.4,32-32
		C272,204,254.4,176,240,156.8z M288,216c0,26.4-21.6,48-48,48s-48-21.6-48-48c0-24,37.6-72,41.6-76.8c3.2-4,9.6-4,12.8,0
		C250.4,144,288,192,288,216z"/>
	<path style="fill:#42210B;" d="M344,184v-64H136v64c0,57.6,46.4,104,104,104S344,241.6,344,184z M360,184c0,66.4-53.6,120-120,120
		s-120-53.6-120-120v-72c0-4.8,4-8,8-8h224c4,0,8,3.2,8,8V184z"/>
	<path style="fill:#42210B;" d="M208,32h64V16h-64V32z M216,352h48v-28c0-4,2.4-7.2,6.4-8C332.8,302.4,376,248,376,184V48h-96h-80
		h-96v136c0,64,43.2,118.4,105.6,132.8c4,0.8,6.4,4,6.4,8V352z M200,330.4C133.6,312.8,88,252.8,88,184V40c0-4.8,3.2-8,8-8h96V8
		c0-4,4-8,8-8h80c4,0,8,4,8,8v24h96c4,0,8,3.2,8,8v144c0,69.6-45.6,128.8-112,146.4V360c0,4-4,8-8,8h-24v80c0,17.6,14.4,32,32,32
		s32-14.4,32-32v-80c0-26.4,21.6-48,48-48s48,21.6,48,48v120h-16V368c0-17.6-14.4-32-32-32s-32,14.4-32,32v80c0,26.4-21.6,48-48,48
		s-48-21.6-48-48v-80h-24c-4,0-8-4-8-8V330.4z"/>
</g>
<path style="fill:#D9CDC1;" d="M200,48h-96v32l6.4-10.4c6.4-8,16-13.6,26.4-13.6h201.6c16.8,0,30.4,13.6,30.4,30.4v144
	c4.8-14.4,8-30.4,8-46.4V48H280H200z"/>
</svg>