<?xml version="1.0" encoding="iso-8859-1"?>
<!-- Uploaded to: SVG Repo, www.svgrepo.com, Generator: SVG Repo Mixer Tools -->
<svg version="1.1" id="Layer_1" xmlns="http://www.w3.org/2000/svg" xmlns:xlink="http://www.w3.org/1999/xlink" 
	 viewBox="0 0 392.533 392.533" xml:space="preserve">
<g>
	<path style="fill:#FFFFFF;" d="M74.861,122.828H57.083v236.929c0,6.012,4.848,10.925,10.925,10.925h256.517
		c6.012,0,10.925-4.848,10.925-10.925V83.782h-51.006c-6.012,0-10.925-4.848-10.925-10.925V21.851H67.943
		c-6.012,0-10.925,4.848-10.925,10.925v32.905h34.974c6.012,0,10.925,4.848,10.925,10.925c0,6.012-4.848,10.925-10.925,10.925
		H57.083v13.576h17.778c6.012,0,10.925,4.848,10.925,10.925C85.786,117.98,80.873,122.828,74.861,122.828z"/>
	<polygon style="fill:#FFFFFF;" points="295.305,61.996 320,61.996 295.305,37.236 	"/>
</g>
<path style="fill:#56ACE0;" d="M313.665,90.893v247.143c0,6.012-4.848,10.925-10.925,10.925H89.794
	c-6.012,0-10.925-4.849-10.925-10.925V54.497c0-6.012,4.848-10.925,10.925-10.925h176.485"/>
<g>
	<path style="fill:#194F82;" d="M287.677,253.22H181.333c-6.012,0-10.925-4.848-10.925-10.925c0-6.077,4.848-10.925,10.925-10.925
		h106.343c6.012,0,10.925,4.848,10.925,10.925C298.602,248.372,293.689,253.22,287.677,253.22z"/>
	<path style="fill:#194F82;" d="M287.677,324.008h-93.091c-6.012,0-10.925-4.848-10.925-10.925c0-6.012,4.848-10.925,10.925-10.925
		h93.22c6.012,0,10.925,4.848,10.925,10.925C298.602,319.16,293.689,324.008,287.677,324.008z"/>
</g>
<path style="fill:#FFC10D;" d="M223.483,82.295c-7.951,0-14.739,5.43-16.614,13.059c-1.164,4.913-5.56,8.339-10.602,8.339
	s-9.438-3.491-10.602-8.339c-1.875-7.758-8.663-13.059-16.614-13.059c-9.438,0-17.067,7.628-17.067,17.067
	c0,21.398,27.927,52.234,44.283,67.685c16.743-15.774,44.283-46.222,44.283-67.685C240.549,89.923,232.921,82.295,223.483,82.295z"
	/>
<path style="fill:#194F82;" d="M223.483,60.509c-10.537,0-20.17,4.202-27.216,11.055c-7.046-6.853-16.679-11.055-27.216-11.055
	c-21.398,0-38.853,17.455-38.853,38.853c0,39.499,53.01,85.527,59.022,90.699c3.879,3.426,10.602,3.232,14.158,0
	c6.012-5.107,59.022-51.2,59.022-90.699C262.335,77.899,244.945,60.509,223.483,60.509z M196.267,167.046
	c-16.356-15.451-44.283-46.352-44.283-67.685c0-9.438,7.628-17.067,17.067-17.067c7.952,0,14.739,5.43,16.614,13.059
	c1.164,4.913,5.56,8.339,10.602,8.339s9.438-3.491,10.602-8.339c1.875-7.758,8.663-13.059,16.614-13.059
	c9.438,0,17.067,7.628,17.067,17.067C240.549,120.824,213.01,151.273,196.267,167.046z"/>
<rect x="115.653" y="213.592" style="fill:#FFC10D;" width="19.394" height="19.394"/>
<g>
	<path style="fill:#194F82;" d="M145.972,191.677h-41.18c-6.012,0-10.925,4.848-10.925,10.925v41.18
		c0,6.012,4.848,10.925,10.925,10.925h41.18c6.012,0,10.925-4.848,10.925-10.925v-41.18
		C156.832,196.655,151.984,191.677,145.972,191.677z M135.046,232.986h-19.394v-19.394h19.394V232.986z"/>
	<path style="fill:#194F82;" d="M165.818,274.36l-38.723,38.723l-15.515-15.515c-4.008-4.008-10.602-4.008-14.61,0
		c-4.008,4.008-4.008,10.602,0,14.61l22.885,22.885c5.042,4.719,11.442,3.103,14.61,0l46.028-46.028
		c4.008-4.008,4.008-10.602,0-14.61C176.42,270.352,169.826,270.352,165.818,274.36z"/>
</g>
<polygon style="fill:#FFC10D;" points="295.305,61.996 320,61.996 295.305,37.236 "/>
<path style="fill:#194F82;" d="M347.669,58.699L298.537,9.568C292.331,3.362,284.186,0,275.459,0H68.008
	C49.972,0,35.297,14.675,35.297,32.711v327.111c0,18.036,14.675,32.711,32.711,32.711h256.517c18.036,0,32.711-14.675,32.711-32.711
	V81.907C357.236,73.115,353.81,64.905,347.669,58.699z M295.305,37.236l24.76,24.76h-24.76V37.236z M335.451,359.822
	c0,6.012-4.848,10.925-10.925,10.925H68.008c-6.012,0-10.925-4.848-10.925-10.925V122.828h17.778
	c6.012,0,10.925-4.848,10.925-10.925c0-6.012-4.848-10.925-10.925-10.925H57.083V87.402h34.974c6.012,0,10.925-4.848,10.925-10.925
	c0-6.012-4.848-10.925-10.925-10.925H57.083v-32.97c0-6.012,4.848-10.925,10.925-10.925h205.446v51.135
	c0,6.012,4.848,10.925,10.925,10.925h51.006v276.105H335.451z"/>
</svg>